# xmcd
#
# Track frame offsets: 
#        150
#        17474
#        32038
#        50858
#        68252
#        81238
#        99697
#        113143
#        126616
#        145824
#        160153
#        175934
#        195097
#        212102
#        227771
#
# Disc length: 3314 seconds
#
# Revision: 3
# Processed by: cddbd v1.5.2PL0 Copyright (c) Steve Scherf et al.
# Submitted via: ExactAudioCopyFreeDBPlugin 1.0
#
DISCID=c90cf00f
DTITLE=Kenny Rogers - 1999 - Country Legends 
DYEAR=1999
DGENRE=Country
TTITLE0=Lady [With Dottie West]
TTITLE1=You Needed Me
TTITLE2=So In Love With You
TTITLE3=We've Got Tonight [With Sheena Easton]
TTITLE4=You Are So Beautiful
TTITLE5=The Fool In Me
TTITLE6=I Wish That I Could Hurt That Way Again
TTITLE7=Together Again [With Dottie West]
TTITLE8=She Believes In Me
TTITLE9=Love The World Away
TTITLE10=Green Green Grass Of Home
TTITLE11=You've Lost That Lovin Feeling [With Dottie West]
TTITLE12=Desperado
TTITLE13=The Gambler
TTITLE14=Through the Years
EXTD=
EXTT0=
EXTT1=
EXTT2=
EXTT3=
EXTT4=
EXTT5=
EXTT6=
EXTT7=
EXTT8=
EXTT9=
EXTT10=
EXTT11=
EXTT12=
EXTT13=
EXTT14=
PLAYORDER=
